<svg width="84" height="84" viewBox="0 0 84 84" fill="none" xmlns="http://www.w3.org/2000/svg">
<circle cx="42" cy="42" r="37.5" fill="white" stroke="#2E74EE" stroke-width="9"/>
<path d="M37.0451 51.44H36.0451V52.44H37.0451V51.44ZM37.0451 42.08L37.0076 41.0807L36.0451 41.1168V42.08H37.0451ZM44.3051 40.28L44.8551 41.1152L44.8598 41.112L44.3051 40.28ZM36.9251 30.62L37.6187 31.3403L37.6192 31.3398L36.9251 30.62ZM34.6451 34.7L34.2648 35.6249L35.3226 36.0599L35.6125 34.9534L34.6451 34.7ZM28.2251 32.06L27.2647 31.7812L27.0144 32.6434L27.8448 32.9849L28.2251 32.06ZM32.4251 25.4L33.0568 26.1752L33.0652 26.1683L33.0735 26.1612L32.4251 25.4ZM36.3251 23.24L36.6488 24.1862L36.6598 24.1824L36.6708 24.1783L36.3251 23.24ZM47.1251 23.3L46.7815 24.2391L46.7917 24.2428L46.8019 24.2463L47.1251 23.3ZM51.3251 25.76L50.6437 26.4919L50.6505 26.4983L50.6575 26.5046L51.3251 25.76ZM54.0851 39.2L53.1659 38.8061L53.1631 38.8126L53.1604 38.8192L54.0851 39.2ZM51.7451 42.8L52.4522 43.5071L52.4591 43.5002L52.4659 43.4931L51.7451 42.8ZM48.3251 45.26L48.7495 46.1655L48.761 46.1601L48.7723 46.1544L48.3251 45.26ZM44.3651 46.52L44.1913 45.5352L43.3651 45.681V46.52H44.3651ZM44.3651 51.44V52.44H45.3651V51.44H44.3651ZM37.1051 64.52L36.3801 65.2087L37.1051 64.52ZM37.1051 57.2L36.3801 56.5112L37.1051 57.2ZM44.4851 57.2L45.2101 56.5112L44.4851 57.2ZM38.0451 51.44V42.08H36.0451V51.44H38.0451ZM37.0826 43.0793C40.3616 42.9563 42.9944 42.3405 44.8551 41.1152L43.7551 39.4448C42.3357 40.3795 40.1285 40.9637 37.0076 41.0807L37.0826 43.0793ZM44.8598 41.112C46.863 39.7766 47.8251 37.7163 47.8251 35.12H45.8251C45.8251 37.1637 45.1071 38.5434 43.7504 39.4479L44.8598 41.112ZM47.8251 35.12V34.28H45.8251V35.12H47.8251ZM47.8251 34.28C47.8251 32.3913 47.255 30.7967 46.0021 29.6441L44.648 31.1159C45.3952 31.8033 45.8251 32.8087 45.8251 34.28H47.8251ZM46.0021 29.6441C44.7765 28.5164 43.1738 28 41.3051 28V30C42.7963 30 43.8737 30.4035 44.648 31.1159L46.0021 29.6441ZM41.3051 28C39.2899 28 37.5666 28.6122 36.2309 29.9002L37.6192 31.3398C38.5236 30.4678 39.7203 30 41.3051 30V28ZM36.2314 29.8997C34.9992 31.0863 34.1568 32.6174 33.6777 34.4466L35.6125 34.9534C36.0134 33.4226 36.691 32.2337 37.6187 31.3403L36.2314 29.8997ZM35.0254 33.7751L28.6054 31.1351L27.8448 32.9849L34.2648 35.6249L35.0254 33.7751ZM29.1854 32.3388C29.5214 31.1814 30.0078 30.0574 30.6478 28.9657L28.9224 27.9543C28.2023 29.1826 27.6487 30.4586 27.2647 31.7812L29.1854 32.3388ZM30.6478 28.9657C31.2653 27.9123 32.0658 26.9827 33.0568 26.1752L31.7934 24.6248C30.6243 25.5773 29.6649 26.6877 28.9224 27.9543L30.6478 28.9657ZM33.0735 26.1612C34.0461 25.3328 35.2321 24.6708 36.6488 24.1862L36.0014 22.2938C34.3781 22.8492 32.9641 23.6272 31.7766 24.6388L33.0735 26.1612ZM36.6708 24.1783C38.0575 23.6674 39.6964 23.4 41.6051 23.4V21.4C39.5138 21.4 37.6326 21.6926 35.9794 22.3017L36.6708 24.1783ZM41.6051 23.4C43.5472 23.4 45.2684 23.6855 46.7815 24.2391L47.4687 22.3609C45.7018 21.7145 43.743 21.4 41.6051 21.4V23.4ZM46.8019 24.2463C48.3213 24.7652 49.596 25.5164 50.6437 26.4919L52.0065 25.0281C50.7342 23.8436 49.2088 22.9548 47.4482 22.3536L46.8019 24.2463ZM50.6575 26.5046C51.7062 27.4447 52.5225 28.5848 53.1072 29.9369L54.9429 29.1431C54.2477 27.5352 53.264 26.1553 51.9926 25.0154L50.6575 26.5046ZM53.1072 29.9369C53.6871 31.2778 53.9851 32.7806 53.9851 34.46H55.9851C55.9851 32.5394 55.6431 30.7622 54.9429 29.1431L53.1072 29.9369ZM53.9851 34.46C53.9851 36.1055 53.7049 37.5484 53.1659 38.8061L55.0042 39.5939C55.6652 38.0516 55.9851 36.3345 55.9851 34.46H53.9851ZM53.1604 38.8192C52.6472 40.0656 51.9356 41.1591 51.0242 42.1069L52.4659 43.4931C53.5546 42.3609 54.4029 41.0544 55.0098 39.5807L53.1604 38.8192ZM51.038 42.0929C50.1149 43.016 49.0629 43.7731 47.8779 44.3656L48.7723 46.1544C50.1473 45.4669 51.3753 44.584 52.4522 43.5071L51.038 42.0929ZM47.9006 44.3545C46.6984 44.9181 45.4626 45.3109 44.1913 45.5352L44.5389 47.5048C45.9876 47.2491 47.3917 46.8019 48.7495 46.1655L47.9006 44.3545ZM43.3651 46.52V51.44H45.3651V46.52H43.3651ZM44.3651 50.44H37.0451V52.44H44.3651V50.44ZM40.7651 64.72C39.2174 64.72 38.3219 64.349 37.8301 63.8312L36.3801 65.2087C37.4082 66.291 38.9528 66.72 40.7651 66.72V64.72ZM37.8301 63.8312C37.269 63.2406 36.9651 62.478 36.9651 61.46H34.9651C34.9651 62.922 35.4212 64.1994 36.3801 65.2087L37.8301 63.8312ZM36.9651 61.46V60.26H34.9651V61.46H36.9651ZM36.9651 60.26C36.9651 59.242 37.269 58.4794 37.8301 57.8887L36.3801 56.5112C35.4212 57.5206 34.9651 58.798 34.9651 60.26H36.9651ZM37.8301 57.8887C38.3219 57.371 39.2174 57 40.7651 57V55C38.9528 55 37.4082 55.429 36.3801 56.5112L37.8301 57.8887ZM40.7651 57C42.3612 57 43.272 57.375 43.7601 57.8887L45.2101 56.5112C44.1782 55.425 42.609 55 40.7651 55V57ZM43.7601 57.8887C44.3212 58.4794 44.6251 59.242 44.6251 60.26H46.6251C46.6251 58.798 46.169 57.5206 45.2101 56.5112L43.7601 57.8887ZM44.6251 60.26V61.46H46.6251V60.26H44.6251ZM44.6251 61.46C44.6251 62.478 44.3212 63.2406 43.7601 63.8312L45.2101 65.2087C46.169 64.1994 46.6251 62.922 46.6251 61.46H44.6251ZM43.7601 63.8312C43.272 64.345 42.3612 64.72 40.7651 64.72V66.72C42.609 66.72 44.1782 66.295 45.2101 65.2087L43.7601 63.8312Z" fill="#2E74EE"/>
<path d="M34.0451 49.44V40.08C37.2451 39.96 39.6651 39.36 41.3051 38.28C42.9851 37.16 43.8251 35.44 43.8251 33.12V32.28C43.8251 30.6 43.3251 29.3 42.3251 28.38C41.3251 27.46 39.9851 27 38.3051 27C36.5051 27 35.0451 27.54 33.9251 28.62C32.8451 29.66 32.0851 31.02 31.6451 32.7L25.2251 30.06C25.5851 28.82 26.1051 27.62 26.7851 26.46C27.4651 25.3 28.3451 24.28 29.4251 23.4C30.5051 22.48 31.8051 21.76 33.3251 21.24C34.8451 20.68 36.6051 20.4 38.6051 20.4C40.6451 20.4 42.4851 20.7 44.1251 21.3C45.7651 21.86 47.1651 22.68 48.3251 23.76C49.4851 24.8 50.3851 26.06 51.0251 27.54C51.6651 29.02 51.9851 30.66 51.9851 32.46C51.9851 34.22 51.6851 35.8 51.0851 37.2C50.5251 38.56 49.7451 39.76 48.7451 40.8C47.7451 41.8 46.6051 42.62 45.3251 43.26C44.0451 43.86 42.7251 44.28 41.3651 44.52V49.44H34.0451ZM37.7651 63.72C36.0851 63.72 34.8651 63.32 34.1051 62.52C33.3451 61.72 32.9651 60.7 32.9651 59.46V58.26C32.9651 57.02 33.3451 56 34.1051 55.2C34.8651 54.4 36.0851 54 37.7651 54C39.4851 54 40.7251 54.4 41.4851 55.2C42.2451 56 42.6251 57.02 42.6251 58.26V59.46C42.6251 60.7 42.2451 61.72 41.4851 62.52C40.7251 63.32 39.4851 63.72 37.7651 63.72Z" fill="#2E74EE"/>
</svg>
